<?xml version="1.0" encoding="UTF-8"?>
<svg version="1.1" xmlns="http://www.w3.org/2000/svg" width="512" height="512">
<path d="M0 0 C1.07556152 0.17692383 2.15112305 0.35384766 3.25927734 0.53613281 C35.28746552 5.89808769 76.75001683 14.96877329 97 43 C102.88006916 52.96671722 104.73986635 62.45581555 102.38671875 74.01171875 C97.19505844 90.0441147 82.7884183 100.24052667 68.484375 107.8046875 C48.88533799 117.67401557 27.45833474 123.09531302 5.9375 126.75 C4.18385132 127.04813599 4.18385132 127.04813599 2.39477539 127.35229492 C-16.05307085 130.30805519 -34.39377287 131.38032324 -53.0625 131.3125 C-54.59630814 131.31026428 -54.59630814 131.31026428 -56.16110229 131.3079834 C-72.61287368 131.26504386 -88.71898827 130.54085743 -105 128 C-106.43956055 127.7831958 -106.43956055 127.7831958 -107.90820312 127.56201172 C-137.30069405 123.02656754 -171.15673687 115.36313742 -194 95 C-194.76957031 94.33484375 -195.53914063 93.6696875 -196.33203125 92.984375 C-203.65722598 86.23013243 -209.32121628 77.48887612 -210.23828125 67.37109375 C-210.55516747 54.84574914 -206.41370665 45.26556169 -198 36 C-189.22196645 27.54396306 -179.07400132 21.88413043 -168 17 C-166.80890625 16.46761719 -165.6178125 15.93523438 -164.390625 15.38671875 C-153.8873009 10.94917898 -143.02659805 7.84449419 -132 5 C-131.25363281 4.80664062 -130.50726563 4.61328125 -129.73828125 4.4140625 C-124.19993417 3.02190968 -118.62876586 1.95640911 -113 1 C-111.94651367 0.81663086 -110.89302734 0.63326172 -109.80761719 0.44433594 C-74.29260293 -5.45984787 -35.50143688 -6.106885 0 0 Z " fill="#000000" transform="translate(309,3)"/>
<path d="M0 0 C1.19545509 0.74407532 2.3852329 1.49732102 3.5703125 2.2578125 C34.54940319 20.77315336 72.15235695 27.66874136 107.6953125 30.3828125 C108.39495117 30.43920898 109.09458984 30.49560547 109.81542969 30.55371094 C162.84390593 34.67787683 225.9331416 30.54060461 272.52099609 2.27514648 C277.55941155 -0.76369423 280.95442568 -1.47129307 286.6953125 -0.6171875 C290.44810675 0.71713934 292.05774329 2.59363105 294.0078125 5.9453125 C297.01091726 12.6624611 296.37256533 18.9914185 294.1953125 25.8828125 C287.45469907 42.5929346 270.88495771 52.65321487 254.97265625 59.453125 C218.99739181 74.12642406 179.65185237 77.82081154 141.1328125 77.6953125 C139.99600037 77.69382202 138.85918823 77.69233154 137.68792725 77.6907959 C120.1757111 77.64960876 103.02739822 77.07158143 85.6953125 74.3828125 C84.72722656 74.23827637 83.75914062 74.09374023 82.76171875 73.94482422 C50.54613995 69.01085752 16.0768716 60.42507499 -7.3046875 36.3828125 C-7.92988281 35.75503906 -8.55507812 35.12726563 -9.19921875 34.48046875 C-15.46127568 27.74281256 -19.9152526 18.65136305 -20.3046875 9.3828125 C-19.22408439 4.91631964 -17.87029623 2.41727572 -14.0546875 -0.0546875 C-9.38227774 -2.71351115 -4.7149491 -2.30731552 0 0 Z " fill="#000000" transform="translate(117.3046875,190.6171875)"/>
<path d="M0 0 C2.68647276 1.00734203 4.97291455 2.44456154 7.375 4 C68.79475537 40.81397577 157.69897972 39.8965308 225.16210938 23.21826172 C241.98085058 18.84067347 257.9315717 13.08054296 273.0625 4.5 C278.66671574 1.35758063 283.55525056 -0.65793361 290 1 C293.95305127 3.10268684 295.92664007 5.73725112 297.4921875 9.95703125 C299.46966559 17.91257772 297.78619178 24.88195945 294 32 C278.50490621 56.24027001 248.85503064 65.62593531 222.24365234 71.53759766 C196.38980069 76.97997232 170.44466714 79.23231397 144.0625 79.25 C142.69046417 79.25101212 142.69046417 79.25101212 141.29071045 79.25204468 C93.60553454 79.19668463 33.72315459 74.75349161 -2.81640625 40.25390625 C-11.17934056 31.62168246 -17.3779272 22.30950125 -18 10 C-16.82462261 5.9596402 -15.47561913 4.43032207 -12.375 1.625 C-8.06609603 -0.44965747 -4.71398259 -0.61050744 0 0 Z " fill="#000000" transform="translate(115,257)"/>
<path d="M0 0 C3.88398681 1.64760301 7.47177348 3.7729439 11.125 5.875 C32.28924055 17.42574445 55.25546399 24.04952261 79 28 C79.88461914 28.15017578 80.76923828 28.30035156 81.68066406 28.45507812 C143.40547884 38.63978674 224.04864731 37.23973811 278.66796875 2.29296875 C282.42166593 0.21177316 285.82669301 0.35229098 290 1 C294.00613281 2.85469111 295.60704198 4.34506997 297.875 8.125 C300.55642842 15.65547861 299.31632157 22.60983927 296.13671875 29.75 C294.64419615 32.70427154 292.98645791 35.35138945 291 38 C290.34 38.928125 289.68 39.85625 289 40.8125 C264.21805094 69.48768576 212.51349212 75.78066842 177.41796875 78.4609375 C121.01819679 82.39798529 45.50782628 81.71130452 0.25 42.625 C-5.31667915 37.32340081 -9.50914639 31.84299781 -13 25 C-13.32742187 24.360625 -13.65484375 23.72125 -13.9921875 23.0625 C-16.53082596 17.64673796 -17.60970493 13.11603476 -15.9375 7.3125 C-12.19966643 0.92201035 -7.25135942 -1.28780767 0 0 Z " fill="#000000" transform="translate(114,122)"/>
<path d="M0 0 C0.98162109 -0.01224609 1.96324219 -0.02449219 2.97460938 -0.03710938 C14.73336019 -0.06045567 25.04024596 1.62177476 33.875 9.8125 C40.59056845 16.88499827 43.8085732 24.90440146 43.81689453 34.60107422 C43.82004669 35.65922333 43.82319885 36.71737244 43.82644653 37.80758667 C43.82341019 39.50771408 43.82341019 39.50771408 43.8203125 41.2421875 C43.82126923 42.41709747 43.82222595 43.59200745 43.82321167 44.80252075 C43.82389155 47.28550266 43.82205065 49.76848636 43.81787109 52.25146484 C43.81252976 56.04138206 43.8178177 59.83118026 43.82421875 63.62109375 C43.82355775 66.03645859 43.82227613 68.45182336 43.8203125 70.8671875 C43.82233673 71.99655731 43.82436096 73.12592712 43.82644653 74.28952026 C43.80044749 83.06913951 43.80044749 83.06913951 43.11669922 87.33642578 C42.41301171 90.1198303 42.41301171 90.1198303 43.6875 92.125 C45.31493733 95.48158949 44.75707419 98.73880887 43.6875 102.1875 C41.17234648 105.31444762 38.60243659 108.06894669 34.6875 109.1875 C27.54493381 109.04493381 27.54493381 109.04493381 24.6875 106.1875 C21.90774977 106.49636114 19.54574055 107.24013526 16.92456055 108.21337891 C11.22338209 109.92902126 5.41260006 109.55656067 -0.5 109.5625 C-2.39588867 109.59923828 -2.39588867 109.59923828 -4.33007812 109.63671875 C-15.88400653 109.67258195 -25.76472736 107.30413499 -34.3125 99.1875 C-42.4574288 90.43170154 -43.7764856 81.27816052 -43.74609375 69.62890625 C-43.7513356 68.44457504 -43.75657745 67.26024384 -43.76197815 66.0400238 C-43.76837428 63.54646587 -43.76709277 61.05287766 -43.75854492 58.55932617 C-43.75003345 54.76491077 -43.7788358 50.97200151 -43.81054688 47.17773438 C-43.81215919 44.74479211 -43.81158078 42.31184721 -43.80859375 39.87890625 C-43.81982773 38.75569473 -43.83106171 37.63248322 -43.84263611 36.47523499 C-43.75058344 25.96250396 -40.75090741 16.83937164 -33.3125 9.1875 C-23.05056667 0.89688959 -12.73096333 0.00826149 0 0 Z M-20.3125 28.1875 C-21.25662623 31.03955759 -21.44708128 33.66937548 -21.47363281 36.66137695 C-21.48324036 37.53941483 -21.4928479 38.4174527 -21.50274658 39.32209778 C-21.50699646 40.26381332 -21.51124634 41.20552887 -21.515625 42.17578125 C-21.52132507 43.15234177 -21.52702515 44.12890228 -21.53289795 45.13505554 C-21.54233651 47.20029623 -21.54887738 49.2655519 -21.55273438 51.33081055 C-21.56243212 54.47797143 -21.5934634 57.62447689 -21.625 60.77148438 C-21.63153135 62.78124614 -21.6367813 64.79101255 -21.640625 66.80078125 C-21.6529718 67.7364241 -21.6653186 68.67206696 -21.67803955 69.63606262 C-21.65910454 75.23558449 -21.15212828 79.30152751 -18.3125 84.1875 C-15.53176419 86.26984167 -13.18154048 86.42897352 -9.765625 86.3828125 C-8.92128906 86.37636719 -8.07695312 86.36992187 -7.20703125 86.36328125 C-6.33433594 86.34652344 -5.46164062 86.32976562 -4.5625 86.3125 C-3.67433594 86.30347656 -2.78617187 86.29445313 -1.87109375 86.28515625 C0.31538058 86.26164577 2.50130094 86.22878499 4.6875 86.1875 C4.20023437 85.4346875 3.71296875 84.681875 3.2109375 83.90625 C1.24134604 80.39128678 1.26108326 78.16738959 1.6875 74.1875 C2.94205972 71.36474064 3.97134722 69.72461459 6.4375 67.875 C9.67039404 66.88717126 12.32467063 66.89251497 15.6875 67.1875 C17.38471536 68.13472637 19.0579224 69.1281348 20.6875 70.1875 C20.78652133 64.44007371 20.85904082 58.69314608 20.90722656 52.94506836 C20.92731774 50.99055327 20.95459589 49.0360981 20.98925781 47.08178711 C21.03788601 44.26921792 21.0604936 41.45744473 21.078125 38.64453125 C21.09877014 37.77351273 21.11941528 36.9024942 21.14068604 36.00508118 C21.14219556 31.90568451 21.02020866 29.73604478 18.85058594 26.15893555 C13.79946577 21.5553469 6.31398878 22.88364905 -0.125 22.8125 C-1.39666016 22.77511719 -2.66832031 22.73773438 -3.97851562 22.69921875 C-13.399059 22.51860208 -13.399059 22.51860208 -20.3125 28.1875 Z " fill="#000000" transform="translate(363.3125,361.8125)"/>
<path d="M0 0 C4.30538071 2.72142583 6.57536437 6.14700497 9.4140625 10.3125 C10.25070435 11.50625244 10.25070435 11.50625244 11.10424805 12.72412109 C12.2448606 14.35217352 13.38053905 15.98369405 14.51123047 17.61865234 C16.96119339 21.14848075 19.47005558 24.6352346 21.9765625 28.125 C23.37384518 30.0823047 24.76893749 32.0411563 26.1640625 34 C30.78713611 29.70839204 34.35607737 24.8550488 38.0390625 19.75 C41.62571163 14.80751868 45.22106581 9.87354479 48.921875 5.015625 C49.47246582 4.29149414 50.02305664 3.56736328 50.59033203 2.82128906 C52.54564373 0.55839343 54.26111945 -0.83936406 57.25 -1.37109375 C61.70685865 -1.50038828 63.5435291 -1.49125561 67.1640625 1.375 C70.57306123 5.84931083 70.33025662 9.39369148 70.35693359 14.85253906 C70.36919983 16.22840431 70.36919983 16.22840431 70.38171387 17.63206482 C70.40658649 20.67657819 70.42308918 23.72104486 70.4375 26.765625 C70.44282368 27.80439537 70.44814735 28.84316574 70.45363235 29.913414 C70.48037278 35.41215782 70.49974434 40.91087888 70.51416016 46.40966797 C70.53080499 52.09052873 70.57557919 57.77080902 70.6265316 63.45145035 C70.66018373 67.81808135 70.67173543 72.18457428 70.67738724 76.55132294 C70.68410592 78.64530622 70.69934392 80.73928023 70.72327805 82.83313751 C70.75488663 85.76586716 70.75497258 88.69702764 70.74755859 91.62988281 C70.76396393 92.49348923 70.78036926 93.35709564 70.79727173 94.24687195 C70.75366434 98.46530567 70.45674079 101.1765773 67.76797485 104.52874756 C64.46269995 107.66563067 62.76002784 107.96760495 58.3828125 108.171875 C55.04830229 107.91356787 52.87726724 106.91909603 50.1640625 105 C48.11886687 101.82636962 47.896591 99.23040407 47.84521484 95.49707031 C47.82534515 94.39623108 47.80547546 93.29539185 47.78500366 92.16119385 C47.77345245 90.97878113 47.76190125 89.79636841 47.75 88.578125 C47.73063385 87.36300232 47.7112677 86.14787964 47.6913147 84.89593506 C47.63152444 81.01402816 47.58513504 77.1320916 47.5390625 73.25 C47.50088228 70.61847663 47.46183052 67.98696576 47.421875 65.35546875 C47.32582321 58.90375669 47.24077385 52.45196943 47.1640625 46 C46.65020996 46.70346558 46.65020996 46.70346558 46.12597656 47.42114258 C44.56131237 49.55604816 42.98780925 51.68428201 41.4140625 53.8125 C40.87523437 54.55048828 40.33640625 55.28847656 39.78125 56.04882812 C39.25273438 56.76103516 38.72421875 57.47324219 38.1796875 58.20703125 C37.69790039 58.8616333 37.21611328 59.51623535 36.71972656 60.19067383 C34.47885132 62.79693975 32.38234796 64.73847182 28.98046875 65.46875 C27.86478516 65.48421875 27.86478516 65.48421875 26.7265625 65.5 C25.98535156 65.5309375 25.24414062 65.561875 24.48046875 65.59375 C18.91982573 64.16842498 15.19401331 57.62924574 11.8515625 53.1875 C11.1699707 52.2912793 11.1699707 52.2912793 10.47460938 51.37695312 C9.36772333 49.92052412 8.26540986 48.46062183 7.1640625 47 C7.16041687 47.65066437 7.15677124 48.30132874 7.15301514 48.97171021 C7.11115678 55.75298591 7.04178714 62.53358692 6.95654297 69.31445312 C6.92834318 71.84400683 6.90712377 74.37364849 6.89306641 76.90332031 C6.87162421 80.54277546 6.8249639 84.18117415 6.7734375 87.8203125 C6.77159454 89.51282639 6.77159454 89.51282639 6.76971436 91.23953247 C6.65453144 97.43511431 6.3696137 101.31091628 2.1640625 106 C-1.43972986 108.51908654 -4.43581282 108.18877323 -8.64453125 107.61328125 C-12.05884883 106.65775922 -13.72976975 104.76434517 -15.8359375 102 C-17.12708303 98.1265634 -16.99162696 94.45441291 -16.99707031 90.41699219 C-17.00203522 89.54022324 -17.00700012 88.66345428 -17.01211548 87.76011658 C-17.02673566 84.85569476 -17.03353945 81.95132759 -17.0390625 79.046875 C-17.04481479 77.0276896 -17.05057251 75.00850422 -17.05633545 72.98931885 C-17.06684552 68.75247951 -17.07268791 64.51565914 -17.07617188 60.27880859 C-17.08165165 54.85718323 -17.10566868 49.43580964 -17.13414383 44.01426315 C-17.15279526 39.84146398 -17.15797718 35.66872509 -17.15950775 31.49588776 C-17.16252996 29.49765906 -17.1705439 27.49943131 -17.18369293 25.50124359 C-17.20080303 22.70083144 -17.19886085 19.90102958 -17.19238281 17.10058594 C-17.2015976 16.2795488 -17.21081238 15.45851166 -17.2203064 14.6125946 C-17.18225067 9.34428515 -16.29589801 5.68256221 -13.8359375 1 C-9.87632199 -2.25254132 -4.59555239 -1.62047026 0 0 Z " fill="#000000" transform="translate(35.8359375,363)"/>
<path d="M0 0 C12.86841784 -0.57299078 25.36279575 2.95688007 35.41796875 11.0078125 C41.9954369 17.07746142 45.6003572 24.17534491 46.2734375 33.14453125 C45.99719772 36.45298446 44.51911464 38.00353881 42.10546875 40.15625 C38.61718444 42.68224898 35.30878482 42.66354677 31.10546875 42.15625 C27.18029642 39.59287215 24.95902417 37.00688659 22.35546875 33.15625 C18.80878855 28.32983984 14.84892958 25.82917752 9.10546875 24.15625 C0.80942268 23.09217145 -6.76395924 23.5174603 -13.89453125 28.15625 C-16.3799074 30.21611162 -16.3799074 30.21611162 -17.89453125 32.15625 C-17.54513759 34.59155507 -17.54513759 34.59155507 -15.89453125 37.15625 C-9.40481748 41.22431644 -1.87329201 42.36297542 5.54296875 43.65625 C18.07213994 45.84904399 30.57363548 48.67577912 38.7421875 59.28125 C43.64986436 66.93103858 43.764219 74.27703893 43.10546875 83.15625 C42.25864541 86.2773989 41.01626535 88.56473212 39.10546875 91.15625 C38.69296875 91.75695312 38.28046875 92.35765625 37.85546875 92.9765625 C30.70033205 102.36767942 18.8094633 107.03462699 7.4296875 108.69140625 C-7.47373851 110.01581694 -20.34740572 107.39527925 -32.3828125 98.26953125 C-38.34768672 92.73152185 -41.75452359 86.17980645 -43.95703125 78.40625 C-43.87544654 74.16384502 -42.63563382 72.34185569 -39.89453125 69.15625 C-37.46419894 67.31254963 -35.61408705 67.103336 -32.58203125 66.53125 C-27.09067929 67.46198762 -25.05022572 70.77973942 -21.89453125 75.15625 C-21.30091797 76.10371094 -21.30091797 76.10371094 -20.6953125 77.0703125 C-17.26106877 82.54100251 -13.11453177 85.34107475 -6.89453125 87.15625 C2.97100738 88.25942525 12.05304033 87.79399846 20.23046875 81.90625 C22.38372615 79.21464945 22.38372615 79.21464945 22.48046875 75.59375 C20.96262481 71.79914015 20.71795754 71.59122159 17.2109375 70.05859375 C11.93305431 67.87971357 6.6680951 67.07025209 1.04296875 66.28125 C-13.4301887 63.96586945 -27.11090063 61.01939725 -36.89453125 49.15625 C-41.55219117 42.53554494 -42.01088686 35.0279883 -40.89453125 27.15625 C-37.26383746 16.57988114 -30.58530963 10.33368363 -20.89453125 5.15625 C-14.04403134 2.31891608 -7.38535782 0.60910168 0 0 Z " fill="#000000" transform="translate(255.89453125,359.84375)"/>
<path d="M0 0 C3.8183821 2.63030105 5.95481884 5.12339385 8.11328125 9.203125 C8.63857422 10.1828125 9.16386719 11.1625 9.70507812 12.171875 C10.23552734 13.18765625 10.76597656 14.2034375 11.3125 15.25 C12.13717773 16.796875 12.13717773 16.796875 12.97851562 18.375 C14.32901016 20.91158103 15.6690311 23.45313523 17 26 C21.20154611 19.11315013 21.20154611 19.11315013 25.125 12.06640625 C25.74375 10.91011719 26.3625 9.75382812 27 8.5625 C27.30421875 7.96501953 27.6084375 7.36753906 27.921875 6.75195312 C30.25331989 2.47604497 32.4647943 0.70442685 37 -1 C41.15673693 -1.51047647 43.20212466 -1.47872521 46.8125 0.6875 C50.00261953 4.05991208 50.86170904 6.52078629 51.29144287 11.11738586 C50.92053982 16.05857191 49.2582581 19.44575088 47.02441406 23.80932617 C46.60168213 24.6622374 46.1789502 25.51514862 45.7434082 26.39390564 C44.34777629 29.20063651 42.93225234 31.99678374 41.515625 34.79296875 C40.53772392 36.74586654 39.56083005 38.69926899 38.5848999 40.65315247 C36.53893159 44.7418748 34.48355557 48.82567804 32.42089844 52.90600586 C29.77850023 58.13410674 27.15562347 63.37170018 24.53918839 68.61283398 C22.52429159 72.64542606 20.50125515 76.67388856 18.47551727 80.70104408 C17.50547119 82.63093016 16.53746428 84.56184261 15.57154083 86.49379539 C14.22000398 89.19289954 12.8581178 91.88651881 11.49316406 94.57885742 C11.09611267 95.37634399 10.69906128 96.17383057 10.28997803 96.9954834 C8.2937062 100.90506308 6.48328819 104.19287918 3 107 C-1.66685038 107.9780363 -5.99705141 107.36470858 -10.4375 105.75 C-13.08739344 103.94031667 -14.56630175 102.86739651 -16 100 C-16.72319618 93.55028114 -14.7353684 89.9878284 -11.52734375 84.671875 C-10.61681765 83.05151086 -9.71003317 81.42903957 -8.80664062 79.8046875 C-7.38458915 77.27431196 -5.94638823 74.76462308 -4.4387207 72.28417969 C1.45388279 63.00264693 1.45388279 63.00264693 2.58441162 52.45324707 C0.86277936 47.23973215 -1.79680499 42.63247027 -4.73196411 38.01501465 C-6.35478646 35.43621476 -7.69630143 32.7525509 -9.03125 30.015625 C-10.27574752 27.6034508 -11.52829512 25.1964779 -12.796875 22.796875 C-15.84940126 16.84638078 -17.79265575 11.97245906 -16 5.25 C-12.17369599 -0.96774402 -6.771836 -1.88106556 0 0 Z " fill="#000000" transform="translate(140,405)"/>
<path d="M0 0 C3.62895195 3.62895195 4.11385586 7.24905071 4.12442017 12.25978088 C4.12082489 12.96900192 4.11722961 13.67822296 4.11352539 14.40893555 C4.11367142 15.16039856 4.11381744 15.91186157 4.1139679 16.68609619 C4.11327129 19.16966642 4.10549067 21.65316163 4.09765625 24.13671875 C4.09579118 25.85878966 4.09436769 27.58086111 4.09336853 29.30293274 C4.0895504 33.83539291 4.07972611 38.36782104 4.06866455 42.90026855 C4.05843531 47.52530484 4.05386766 52.15034629 4.04882812 56.77539062 C4.03810323 65.8502745 4.02103523 74.92513458 4 84 C4.99854004 83.98428955 5.99708008 83.9685791 7.02587891 83.95239258 C10.74942887 83.89787381 14.4729439 83.86357066 18.19677734 83.83520508 C19.80491072 83.82016824 21.41300344 83.79973328 23.02099609 83.77368164 C25.33962064 83.73707178 27.65770049 83.72022278 29.9765625 83.70703125 C30.68930328 83.69154739 31.40204407 83.67606354 32.13638306 83.66011047 C36.83549151 83.65854519 40.04241953 84.45468194 44 87 C46.24553216 90.76669911 47 93.23901235 47 97.625 C45.80043663 101.67352638 44.2562248 103.36400849 41 106 C38.12310909 106.95896364 36.24904845 107.14216969 33.2565918 107.17700195 C31.81445564 107.19625481 31.81445564 107.19625481 30.34318542 107.21589661 C28.78692192 107.22697701 28.78692192 107.22697701 27.19921875 107.23828125 C25.59552177 107.25038887 25.59552177 107.25038887 23.95942688 107.26274109 C21.69570536 107.27657591 19.43196303 107.28730076 17.16821289 107.29516602 C13.71134826 107.31238124 10.25543939 107.35627416 6.79882812 107.40039062 C4.59896536 107.41051753 2.39909447 107.41903364 0.19921875 107.42578125 C-0.83221756 107.44328934 -1.86365387 107.46079742 -2.92634583 107.47883606 C-8.73424749 107.46133503 -12.56817586 107.17750623 -17 103 C-19.44429384 98.49398257 -19.28967253 94.16496236 -19.2746582 89.17407227 C-19.27976913 88.29540497 -19.28488007 87.41673767 -19.29014587 86.51144409 C-19.30402183 83.61302845 -19.30308665 80.71485112 -19.30078125 77.81640625 C-19.30466916 75.79768282 -19.30900403 73.7789602 -19.31376648 71.76023865 C-19.32122431 67.53113146 -19.32094047 63.30210776 -19.31567383 59.07299805 C-19.30987862 53.658035 -19.32681366 48.24341393 -19.3500185 42.82850742 C-19.36476181 38.66002917 -19.36562674 34.49163318 -19.36250877 30.32313347 C-19.36302164 28.32687642 -19.36825296 26.33061473 -19.37832069 24.33438301 C-19.39067977 21.54113768 -19.38389662 18.74855724 -19.37231445 15.95532227 C-19.37995819 15.13383194 -19.38760193 14.31234161 -19.39547729 13.46595764 C-19.35086313 8.58933851 -18.73052476 5.20890914 -16 1 C-10.57629106 -2.61580596 -5.92285483 -2.41539416 0 0 Z " fill="#000000" transform="translate(446,364)"/>
</svg>
