<?xml version="1.0" encoding="UTF-8"?>
<svg version="1.1" xmlns="http://www.w3.org/2000/svg" width="512" height="512">
<path d="M0 0 C0.78164805 -0.00235223 1.56329611 -0.00470446 2.36863047 -0.00712797 C5.00361751 -0.01381683 7.63855522 -0.01335978 10.27355003 -0.01294994 C12.17553386 -0.01624863 14.07751699 -0.01997421 15.97949922 -0.02409142 C21.21868384 -0.03411888 26.457857 -0.03782942 31.69704986 -0.04048073 C37.34276362 -0.04438155 42.98846829 -0.05396002 48.63417625 -0.0626936 C62.27449862 -0.0824639 75.91482174 -0.09252476 89.55515486 -0.10142139 C95.97634623 -0.1058032 102.39753678 -0.11117027 108.81872749 -0.11641026 C130.1601103 -0.13342281 151.50149192 -0.14794243 172.84288025 -0.155159 C174.22306236 -0.15563375 175.60324448 -0.15610964 176.98342659 -0.15658666 C178.0100931 -0.15694122 178.0100931 -0.15694122 179.05750034 -0.15730295 C182.525218 -0.15850414 185.99293565 -0.1597196 189.46065331 -0.16094494 C190.14883149 -0.16118509 190.83700968 -0.16142524 191.54604176 -0.16167267 C213.85727318 -0.16956519 236.16845144 -0.19299611 258.47965965 -0.22550088 C282.06947387 -0.25980567 305.65924555 -0.27950959 329.24908769 -0.28280324 C342.10774582 -0.28496967 354.96632581 -0.29373788 367.82496071 -0.31926441 C378.77466622 -0.34095102 389.7242746 -0.34903183 400.67399915 -0.33929763 C406.26102689 -0.33474711 411.84785415 -0.33668309 417.43485451 -0.35605907 C422.55113534 -0.37364941 427.66706882 -0.37272642 432.78335313 -0.35716178 C434.63266322 -0.35477945 436.48199711 -0.35914158 438.33127077 -0.37099043 C451.44984363 -0.44982785 461.44800946 0.54476743 471.34004784 9.91156483 C477.5967912 16.93343262 479.47350872 23.60493471 479.45473766 32.81370449 C479.45708989 33.59535255 479.45944212 34.3770006 479.46186563 35.18233496 C479.4685545 37.817322 479.46809744 40.45225971 479.46768761 43.08725452 C479.4709863 44.98923835 479.47471188 46.89122148 479.47882909 48.79320371 C479.48885655 54.03238833 479.49256708 59.27156149 479.4952184 64.51075435 C479.49911921 70.15646811 479.50869768 75.80217278 479.51743126 81.44788074 C479.53720157 95.08820311 479.54726243 108.72852623 479.55615905 122.36885935 C479.56054087 128.79005072 479.56590794 135.21124127 479.57114792 141.63243198 C479.58816047 162.9738148 479.6026801 184.31519641 479.60989666 205.65658474 C479.61037142 207.03676685 479.61084731 208.41694897 479.61132432 209.79713108 C479.61167889 210.82379759 479.61167889 210.82379759 479.61204061 211.87120483 C479.61324181 215.33892249 479.61445726 218.80664014 479.6156826 222.2743578 C479.61592275 222.96253598 479.6161629 223.65071417 479.61641033 224.35974625 C479.62430285 246.67097767 479.64773378 268.98215593 479.68023855 291.29336414 C479.71454333 314.88317836 479.73424726 338.47295004 479.7375409 362.06279218 C479.73970733 374.92145031 479.74847554 387.7800303 479.77400208 400.6386652 C479.79568868 411.58837071 479.80376949 422.53797909 479.79403529 433.48770364 C479.78948477 439.07473138 479.79142075 444.66155864 479.81079674 450.248559 C479.82838707 455.36483984 479.82746409 460.48077331 479.81189945 465.59705763 C479.80951712 467.44636771 479.81387924 469.2957016 479.8257281 471.14497526 C479.90419819 484.20242448 478.92557474 494.28258813 469.61348534 504.15375233 C462.89605925 509.95568593 455.47913841 512.28614295 446.764081 512.26844215 C445.98358679 512.27079438 445.20309258 512.27314661 444.39894703 512.27557012 C441.76186346 512.28227107 439.12482904 512.28180157 436.48773766 512.2813921 C434.58661688 512.28469005 432.68549681 512.28841547 430.78437763 512.29253358 C425.54293367 512.30256966 420.30150115 512.30627296 415.06004894 512.30892289 C409.41363593 512.31282121 403.76723202 512.32239991 398.12082481 512.33113575 C384.47563534 512.35091417 370.83044511 512.36096841 357.18524489 512.36986354 C350.76255707 512.37424444 344.33987008 512.37961179 337.91718292 512.38485241 C316.57155149 512.40186655 295.22592126 512.41638594 273.88028431 512.42360115 C272.49956167 512.42407591 271.11883903 512.4245518 269.73811639 512.42502881 C269.05339954 512.42526519 268.36868269 512.42550156 267.66321684 512.4257451 C264.19408433 512.42694631 260.72495182 512.42816175 257.25581932 512.42938709 C256.56735825 512.42962724 255.87889717 512.42986739 255.16957364 512.43011482 C232.85165917 512.43800647 210.53379786 512.46143476 188.2159066 512.49394304 C164.62147147 512.52824798 141.02707887 512.54795181 117.43261582 512.55124539 C104.57058934 512.55341191 91.70864098 512.56218132 78.84663773 512.58770657 C67.89324821 512.60939356 56.93995578 512.61747383 45.98654722 512.60773978 C40.39750119 512.60318924 34.80865558 512.60512534 29.21963692 512.62450123 C24.1014658 512.64209158 18.98364191 512.64116856 13.86546732 512.62560394 C12.0154544 512.6232216 10.16541769 512.62758379 8.31544118 512.63943259 C-4.8052159 512.718252 -14.80529035 511.72527115 -24.69901466 502.35687733 C-30.95575803 495.33500953 -32.83247555 488.66350744 -32.81370449 479.45473766 C-32.81605672 478.67308961 -32.81840895 477.89144155 -32.82083246 477.08610719 C-32.82752132 474.45112016 -32.82706427 471.81618245 -32.82665443 469.18118763 C-32.82995313 467.2792038 -32.8336787 465.37722067 -32.83779591 463.47523844 C-32.84782337 458.23605382 -32.85153391 452.99688066 -32.85418522 447.75768781 C-32.85808604 442.11197404 -32.86766451 436.46626937 -32.87639809 430.82056141 C-32.89616839 417.18023904 -32.90622925 403.53991592 -32.91512588 389.8995828 C-32.91950769 383.47839143 -32.92487476 377.05720089 -32.93011475 370.63601017 C-32.9471273 349.29462736 -32.96164692 327.95324575 -32.96886349 306.61185741 C-32.96933824 305.2316753 -32.96981413 303.85149318 -32.97029115 302.47131107 C-32.97052753 301.78686673 -32.9707639 301.1024224 -32.97100744 300.39723732 C-32.97220864 296.92951966 -32.97342409 293.46180201 -32.97464943 289.99408436 C-32.97488958 289.30590617 -32.97512973 288.61772798 -32.97537716 287.90869591 C-32.98326968 265.59746448 -33.0067006 243.28628622 -33.03920537 220.97507801 C-33.07351016 197.3852638 -33.09321409 173.79549211 -33.09650773 150.20564997 C-33.09867416 137.34699184 -33.10744237 124.48841185 -33.1329689 111.62977695 C-33.15465551 100.68007145 -33.16273632 89.73046307 -33.15300212 78.78073852 C-33.1484516 73.19371077 -33.15038758 67.60688352 -33.16976357 62.01988316 C-33.1873539 56.90360232 -33.18643091 51.78766884 -33.17086627 46.67138453 C-33.16848394 44.82207444 -33.17284607 42.97274056 -33.18469492 41.12346689 C-33.26353234 28.00489404 -32.26893706 18.0067282 -22.90213966 8.11468983 C-15.88027187 1.85794646 -9.20876978 -0.01877106 0 0 Z M20.32051659 178.13422108 C20.22369837 180.19716386 20.19864736 182.2634815 20.20026207 184.32869434 C20.19940764 184.98291715 20.19855322 185.63713995 20.1976729 186.31118768 C20.1960163 188.51923451 20.20154237 190.72720656 20.2069912 192.93524647 C20.20727305 194.51172859 20.20711536 196.08821084 20.20654869 197.66469288 C20.20626067 201.95789657 20.21215818 206.25107257 20.21912265 210.5442698 C20.22535537 215.02594791 20.22595992 219.50762658 20.22714806 223.98930836 C20.23026161 232.48203017 20.23847533 240.97473917 20.24849755 249.46745533 C20.25965793 259.13355646 20.26516894 268.7996582 20.27019298 278.46576416 C20.28065792 298.35525855 20.29900371 318.24473536 20.32051659 338.13422108 C32.20051659 338.13422108 44.08051659 338.13422108 56.32051659 338.13422108 C56.32051659 318.66422108 56.32051659 299.19422108 56.32051659 279.13422108 C57.31051659 279.46422108 58.30051659 279.79422108 59.32051659 280.13422108 C80.87505728 281.78322964 103.05743416 279.12221517 120.32051659 265.13422108 C120.94442284 264.65855701 121.56832909 264.18289295 122.21114159 263.69281483 C130.2845873 256.72855873 135.84918475 244.21338973 137.14473534 233.77093983 C137.20274315 232.90082264 137.26075096 232.03070545 137.32051659 231.13422108 C137.3888369 230.17129139 137.45715721 229.2083617 137.52754784 228.21625233 C138.00100754 214.66127626 133.94274326 202.35897023 125.25801659 191.94672108 C110.69974375 176.61842389 90.27680902 174.56987199 70.28145409 173.94672108 C43.79474875 172.0583712 43.79474875 172.0583712 20.32051659 178.13422108 Z M329.32051659 177.13422108 C329.32051659 230.26422108 329.32051659 283.39422108 329.32051659 338.13422108 C340.87051659 338.13422108 352.42051659 338.13422108 364.32051659 338.13422108 C364.32051659 318.66422108 364.32051659 299.19422108 364.32051659 279.13422108 C365.31051659 279.46422108 366.30051659 279.79422108 367.32051659 280.13422108 C388.7858732 281.7764067 411.17967052 279.1915287 428.32051659 265.13422108 C437.93327204 256.83828144 442.38243897 247.01707681 445.07051659 234.69672108 C446.21037496 218.45373925 443.91493502 204.60574389 433.13301659 191.88422108 C418.60936927 176.64512315 398.2267309 174.57561404 378.28926659 173.95062733 C361.955709 173.642447 345.48437718 174.82509814 329.32051659 177.13422108 Z M161.32051659 175.13422108 C161.32051659 228.92422108 161.32051659 282.71422108 161.32051659 338.13422108 C173.53051659 338.13422108 185.74051659 338.13422108 198.32051659 338.13422108 C198.32051659 315.36422108 198.32051659 292.59422108 198.32051659 269.13422108 C218.45051659 269.13422108 238.58051659 269.13422108 259.32051659 269.13422108 C259.32051659 291.90422108 259.32051659 314.67422108 259.32051659 338.13422108 C271.20051659 338.13422108 283.08051659 338.13422108 295.32051659 338.13422108 C295.32051659 284.34422108 295.32051659 230.55422108 295.32051659 175.13422108 C283.44051659 175.13422108 271.56051659 175.13422108 259.32051659 175.13422108 C259.32051659 195.92422108 259.32051659 216.71422108 259.32051659 238.13422108 C239.19051659 238.13422108 219.06051659 238.13422108 198.32051659 238.13422108 C198.32051659 217.34422108 198.32051659 196.55422108 198.32051659 175.13422108 C186.11051659 175.13422108 173.90051659 175.13422108 161.32051659 175.13422108 Z " fill="#030104" transform="translate(32.67948341369629,-0.13422107696533203)"/>
<path d="M0 0 C5.3533723 3.52969602 8.29165315 7.52502969 9.7578125 13.78125 C10.8525536 22.69557042 10.31572244 30.47387688 4.7578125 37.78125 C-3.92945624 46.50556466 -14.67564327 47.8797506 -26.49609375 47.9140625 C-29.2421875 47.78125 -29.2421875 47.78125 -35.2421875 46.78125 C-35.2421875 30.61125 -35.2421875 14.44125 -35.2421875 -2.21875 C-23.55028028 -5.55929492 -10.93188827 -5.94207167 0 0 Z " fill="#020003" transform="translate(432.2421875,205.21875)"/>
<path d="M0 0 C5.91214835 6.80792841 7.80781456 13.35776503 7.41796875 22.32421875 C6.63387252 29.05366006 4.24455195 34.80183915 -0.9375 39.375 C-10.42505877 46.28025951 -21.51812624 47.07848578 -32.9375 46.375 C-34.5875 46.045 -36.2375 45.715 -37.9375 45.375 C-37.9375 29.205 -37.9375 13.035 -37.9375 -3.625 C-24.62473336 -7.42864761 -12.21751018 -6.75862265 0 0 Z " fill="#020003" transform="translate(126.9375,206.625)"/>
</svg>
